<svg width="241" height="95" viewBox="0 0 241 95" fill="none" xmlns="http://www.w3.org/2000/svg">
<path d="M12.0536 81.828C13.0056 81.828 13.8829 81.6227 14.6856 81.212C15.5069 80.8013 16.2443 80.1947 16.8976 79.392L20.0616 82.5C19.1469 83.6387 17.9429 84.5533 16.4496 85.244C14.9749 85.9347 13.4536 86.28 11.8856 86.28C10.4109 86.28 9.02026 86.0187 7.71359 85.496C6.42559 84.9733 5.31493 84.264 4.38159 83.368C3.44826 82.472 2.71093 81.408 2.16959 80.176C1.62826 78.944 1.35759 77.6187 1.35759 76.2C1.35759 74.7813 1.62826 73.456 2.16959 72.224C2.71093 70.9733 3.44826 69.9 4.38159 69.004C5.33359 68.108 6.45359 67.3987 7.74159 66.876C9.02959 66.3533 10.4109 66.092 11.8856 66.092C12.6883 66.092 13.4909 66.1853 14.2936 66.372C15.0963 66.5587 15.8616 66.82 16.5896 67.156C17.3176 67.4733 17.9896 67.8747 18.6056 68.36C19.2216 68.8267 19.7536 69.3493 20.2016 69.928L16.9536 73.12C16.2629 72.2613 15.4883 71.6173 14.6296 71.188C13.7896 70.74 12.8749 70.516 11.8856 70.516C11.1016 70.516 10.3643 70.6653 9.67359 70.964C9.00159 71.244 8.41359 71.636 7.90959 72.14C7.42426 72.644 7.03226 73.2507 6.73359 73.96C6.45359 74.6507 6.31359 75.3973 6.31359 76.2C6.31359 77.0027 6.45359 77.7493 6.73359 78.44C7.03226 79.112 7.43359 79.7 7.93759 80.204C8.46026 80.708 9.06693 81.1093 9.75759 81.408C10.4669 81.688 11.2323 81.828 12.0536 81.828ZM20.6577 78.608C20.6577 77.544 20.863 76.5453 21.2737 75.612C21.703 74.66 22.2724 73.8387 22.9817 73.148C23.7097 72.4573 24.559 71.916 25.5297 71.524C26.519 71.1133 27.5737 70.908 28.6937 70.908C29.8137 70.908 30.859 71.1133 31.8297 71.524C32.819 71.916 33.6684 72.4573 34.3777 73.148C35.1057 73.8387 35.675 74.66 36.0857 75.612C36.515 76.5453 36.7297 77.544 36.7297 78.608C36.7297 79.672 36.515 80.68 36.0857 81.632C35.675 82.5653 35.1057 83.3773 34.3777 84.068C33.6684 84.7587 32.819 85.3 31.8297 85.692C30.859 86.084 29.8137 86.28 28.6937 86.28C27.5737 86.28 26.519 86.084 25.5297 85.692C24.559 85.3 23.7097 84.7587 22.9817 84.068C22.2724 83.3773 21.703 82.5653 21.2737 81.632C20.863 80.68 20.6577 79.672 20.6577 78.608ZM28.6937 82.36C29.7017 82.36 30.551 81.996 31.2417 81.268C31.951 80.54 32.3057 79.6533 32.3057 78.608C32.3057 77.544 31.951 76.648 31.2417 75.92C30.551 75.192 29.7017 74.828 28.6937 74.828C27.6857 74.828 26.827 75.192 26.1177 75.92C25.427 76.648 25.0817 77.544 25.0817 78.608C25.0817 79.6533 25.427 80.54 26.1177 81.268C26.827 81.996 27.6857 82.36 28.6937 82.36ZM43.393 65.42V86H38.857V66.4L43.393 65.42ZM50.9172 86.252C49.3492 86.252 48.0612 85.8227 47.0532 84.964C46.0452 84.1053 45.5412 83.004 45.5412 81.66C45.5412 80.26 46.0732 79.168 47.1372 78.384C48.2198 77.6 49.7225 77.208 51.6452 77.208C52.2238 77.208 52.7932 77.2453 53.3532 77.32C53.9132 77.3947 54.4638 77.4973 55.0052 77.628V76.9C55.0052 76.1533 54.7625 75.6027 54.2772 75.248C53.8105 74.8747 53.1105 74.688 52.1772 74.688C51.5985 74.688 50.9452 74.7813 50.2172 74.968C49.4892 75.1547 48.6492 75.4533 47.6972 75.864L46.0732 72.532C47.2678 71.9907 48.4345 71.5893 49.5732 71.328C50.7305 71.048 51.8692 70.908 52.9892 70.908C55.0425 70.908 56.6385 71.4027 57.7772 72.392C58.9158 73.3627 59.4852 74.7347 59.4852 76.508V86H55.0052V85.104C54.4078 85.5147 53.7732 85.8133 53.1012 86C52.4478 86.168 51.7198 86.252 50.9172 86.252ZM49.8532 81.576C49.8532 82.0427 50.0585 82.4067 50.4692 82.668C50.8798 82.9293 51.4492 83.06 52.1772 83.06C52.7185 83.06 53.2225 83.004 53.6892 82.892C54.1745 82.78 54.6132 82.6027 55.0052 82.36V80.456C54.5758 80.344 54.1372 80.26 53.6892 80.204C53.2412 80.148 52.7838 80.12 52.3172 80.12C51.5332 80.12 50.9265 80.2507 50.4972 80.512C50.0678 80.7547 49.8532 81.1093 49.8532 81.576ZM78.1973 78.608C78.1973 79.672 77.9919 80.6707 77.5813 81.604C77.1893 82.5187 76.6479 83.3213 75.9573 84.012C75.2666 84.684 74.4453 85.216 73.4933 85.608C72.5599 86 71.5613 86.196 70.4973 86.196C69.8066 86.196 69.1346 86.112 68.4813 85.944C67.8279 85.7573 67.2213 85.496 66.6613 85.16V86H62.1813V66.4L66.7173 65.42V72.224C67.2959 71.8133 67.9119 71.5053 68.5653 71.3C69.2373 71.0947 69.9279 70.992 70.6373 70.992C71.6826 70.992 72.6626 71.188 73.5773 71.58C74.5106 71.972 75.3133 72.5133 75.9853 73.204C76.6759 73.8947 77.2173 74.7067 77.6093 75.64C78.0013 76.5547 78.1973 77.544 78.1973 78.608ZM69.8533 74.856C69.2186 74.856 68.6399 74.9587 68.1173 75.164C67.5946 75.3507 67.1279 75.64 66.7173 76.032V81.212C67.1093 81.5667 67.5759 81.8467 68.1173 82.052C68.6586 82.2573 69.2373 82.36 69.8533 82.36C70.9546 82.36 71.8786 82.0053 72.6253 81.296C73.3719 80.568 73.7453 79.672 73.7453 78.608C73.7453 77.544 73.3626 76.6573 72.5973 75.948C71.8506 75.22 70.9359 74.856 69.8533 74.856ZM79.8022 78.608C79.8022 77.544 80.0076 76.5453 80.4182 75.612C80.8476 74.66 81.4169 73.8387 82.1262 73.148C82.8542 72.4573 83.7036 71.916 84.6742 71.524C85.6636 71.1133 86.7182 70.908 87.8382 70.908C88.9582 70.908 90.0036 71.1133 90.9742 71.524C91.9636 71.916 92.8129 72.4573 93.5222 73.148C94.2502 73.8387 94.8196 74.66 95.2302 75.612C95.6596 76.5453 95.8742 77.544 95.8742 78.608C95.8742 79.672 95.6596 80.68 95.2302 81.632C94.8196 82.5653 94.2502 83.3773 93.5222 84.068C92.8129 84.7587 91.9636 85.3 90.9742 85.692C90.0036 86.084 88.9582 86.28 87.8382 86.28C86.7182 86.28 85.6636 86.084 84.6742 85.692C83.7036 85.3 82.8542 84.7587 82.1262 84.068C81.4169 83.3773 80.8476 82.5653 80.4182 81.632C80.0076 80.68 79.8022 79.672 79.8022 78.608ZM87.8382 82.36C88.8462 82.36 89.6956 81.996 90.3862 81.268C91.0956 80.54 91.4502 79.6533 91.4502 78.608C91.4502 77.544 91.0956 76.648 90.3862 75.92C89.6956 75.192 88.8462 74.828 87.8382 74.828C86.8302 74.828 85.9716 75.192 85.2622 75.92C84.5716 76.648 84.2262 77.544 84.2262 78.608C84.2262 79.6533 84.5716 80.54 85.2622 81.268C85.9716 81.996 86.8302 82.36 87.8382 82.36ZM98.0016 86V71.188H102.538V72.672C103.023 72.0933 103.592 71.6453 104.246 71.328C104.899 71.0107 105.627 70.852 106.43 70.852C106.859 70.8707 107.204 70.908 107.466 70.964C107.727 71.0013 107.951 71.0853 108.138 71.216V75.164C107.839 75.0333 107.503 74.9307 107.13 74.856C106.756 74.7627 106.374 74.716 105.982 74.716C105.272 74.716 104.61 74.884 103.994 75.22C103.396 75.556 102.911 76.0133 102.538 76.592V86H98.0016ZM114.546 86.252C112.978 86.252 111.69 85.8227 110.682 84.964C109.674 84.1053 109.17 83.004 109.17 81.66C109.17 80.26 109.702 79.168 110.766 78.384C111.849 77.6 113.351 77.208 115.274 77.208C115.853 77.208 116.422 77.2453 116.982 77.32C117.542 77.3947 118.093 77.4973 118.634 77.628V76.9C118.634 76.1533 118.391 75.6027 117.906 75.248C117.439 74.8747 116.739 74.688 115.806 74.688C115.227 74.688 114.574 74.7813 113.846 74.968C113.118 75.1547 112.278 75.4533 111.326 75.864L109.702 72.532C110.897 71.9907 112.063 71.5893 113.202 71.328C114.359 71.048 115.498 70.908 116.618 70.908C118.671 70.908 120.267 71.4027 121.406 72.392C122.545 73.3627 123.114 74.7347 123.114 76.508V86H118.634V85.104C118.037 85.5147 117.402 85.8133 116.73 86C116.077 86.168 115.349 86.252 114.546 86.252ZM113.482 81.576C113.482 82.0427 113.687 82.4067 114.098 82.668C114.509 82.9293 115.078 83.06 115.806 83.06C116.347 83.06 116.851 83.004 117.318 82.892C117.803 82.78 118.242 82.6027 118.634 82.36V80.456C118.205 80.344 117.766 80.26 117.318 80.204C116.87 80.148 116.413 80.12 115.946 80.12C115.162 80.12 114.555 80.2507 114.126 80.512C113.697 80.7547 113.482 81.1093 113.482 81.576ZM127.363 81.492V74.968H124.367V71.188H127.363V67.38L131.899 66.4V71.188H136.043V74.968H131.899V80.596C131.899 81.2493 132.039 81.716 132.319 81.996C132.618 82.2573 133.131 82.388 133.859 82.388C134.214 82.388 134.55 82.3693 134.867 82.332C135.185 82.276 135.53 82.192 135.903 82.08V85.748C135.493 85.8787 134.97 85.9813 134.335 86.056C133.701 86.1493 133.169 86.196 132.739 86.196C130.966 86.196 129.622 85.804 128.707 85.02C127.811 84.2173 127.363 83.0413 127.363 81.492ZM140.082 69.816C139.391 69.816 138.803 69.5733 138.318 69.088C137.833 68.6027 137.59 68.0147 137.59 67.324C137.59 66.6333 137.833 66.0453 138.318 65.56C138.803 65.0747 139.391 64.832 140.082 64.832C140.773 64.832 141.361 65.0747 141.846 65.56C142.331 66.0453 142.574 66.6333 142.574 67.324C142.574 68.0147 142.331 68.6027 141.846 69.088C141.361 69.5733 140.773 69.816 140.082 69.816ZM142.35 71.188V86H137.814V71.188H142.35ZM144.47 78.608C144.47 77.544 144.676 76.5453 145.086 75.612C145.516 74.66 146.085 73.8387 146.794 73.148C147.522 72.4573 148.372 71.916 149.342 71.524C150.332 71.1133 151.386 70.908 152.506 70.908C153.626 70.908 154.672 71.1133 155.642 71.524C156.632 71.916 157.481 72.4573 158.19 73.148C158.918 73.8387 159.488 74.66 159.898 75.612C160.328 76.5453 160.542 77.544 160.542 78.608C160.542 79.672 160.328 80.68 159.898 81.632C159.488 82.5653 158.918 83.3773 158.19 84.068C157.481 84.7587 156.632 85.3 155.642 85.692C154.672 86.084 153.626 86.28 152.506 86.28C151.386 86.28 150.332 86.084 149.342 85.692C148.372 85.3 147.522 84.7587 146.794 84.068C146.085 83.3773 145.516 82.5653 145.086 81.632C144.676 80.68 144.47 79.672 144.47 78.608ZM152.506 82.36C153.514 82.36 154.364 81.996 155.054 81.268C155.764 80.54 156.118 79.6533 156.118 78.608C156.118 77.544 155.764 76.648 155.054 75.92C154.364 75.192 153.514 74.828 152.506 74.828C151.498 74.828 150.64 75.192 149.93 75.92C149.24 76.648 148.894 77.544 148.894 78.608C148.894 79.6533 149.24 80.54 149.93 81.268C150.64 81.996 151.498 82.36 152.506 82.36ZM162.67 86V71.188H167.206V72.196C167.747 71.7853 168.354 71.468 169.026 71.244C169.716 71.02 170.435 70.908 171.182 70.908C172.918 70.908 174.336 71.468 175.438 72.588C176.539 73.708 177.09 75.136 177.09 76.872V86H172.554V77.488C172.554 76.6853 172.302 76.0413 171.798 75.556C171.312 75.052 170.668 74.8 169.866 74.8C169.287 74.8 168.774 74.9027 168.326 75.108C167.878 75.3133 167.504 75.6027 167.206 75.976V86H162.67ZM183.855 83.004L186.543 79.504C187.719 80.456 188.821 81.1467 189.847 81.576C190.874 82.0053 191.947 82.22 193.067 82.22C194.169 82.22 195.027 82.052 195.643 81.716C196.278 81.38 196.595 80.9133 196.595 80.316C196.595 79.7747 196.381 79.3547 195.951 79.056C195.541 78.7573 194.85 78.524 193.879 78.356L189.567 77.6C187.981 77.32 186.758 76.7133 185.899 75.78C185.041 74.8467 184.611 73.6613 184.611 72.224C184.611 70.3387 185.321 68.8547 186.739 67.772C188.177 66.6707 190.146 66.12 192.647 66.12C194.103 66.12 195.569 66.372 197.043 66.876C198.537 67.38 199.815 68.0613 200.879 68.92L198.331 72.476C197.305 71.6733 196.297 71.0853 195.307 70.712C194.337 70.3387 193.338 70.152 192.311 70.152C191.341 70.152 190.566 70.3107 189.987 70.628C189.427 70.9267 189.147 71.3373 189.147 71.86C189.147 72.3453 189.325 72.728 189.679 73.008C190.053 73.2693 190.65 73.4653 191.471 73.596L195.531 74.268C197.417 74.5667 198.845 75.192 199.815 76.144C200.805 77.096 201.299 78.328 201.299 79.84C201.299 81.8187 200.525 83.3867 198.975 84.544C197.445 85.7013 195.354 86.28 192.703 86.28C191.135 86.28 189.567 85.9907 187.999 85.412C186.45 84.8333 185.069 84.0307 183.855 83.004ZM203.275 86V66.4L207.811 65.42V77.236L213.719 71.188H218.787L212.207 77.88L219.235 86H213.495L207.811 79.364V86H203.275ZM222.25 69.816C221.559 69.816 220.971 69.5733 220.486 69.088C220.001 68.6027 219.758 68.0147 219.758 67.324C219.758 66.6333 220.001 66.0453 220.486 65.56C220.971 65.0747 221.559 64.832 222.25 64.832C222.941 64.832 223.529 65.0747 224.014 65.56C224.499 66.0453 224.742 66.6333 224.742 67.324C224.742 68.0147 224.499 68.6027 224.014 69.088C223.529 69.5733 222.941 69.816 222.25 69.816ZM224.518 71.188V86H219.982V71.188H224.518ZM231.846 65.42V86H227.31V66.4L231.846 65.42ZM239.174 65.42V86H234.638V66.4L239.174 65.42Z" fill="#2A4554"/>
<path d="M26 38C26 31.3726 31.3726 26 38 26H46C52.6274 26 58 31.3726 58 38V58H26V38Z" fill="#2A4554"/>
<path d="M30 8C30 3.58172 33.5817 0 38 0H46C50.4183 0 54 3.58172 54 8V16C54 20.4183 50.4183 24 46 24H38C33.5817 24 30 20.4183 30 16V8Z" fill="#2A4554"/>
<path d="M82 38C82 31.3726 87.3726 26 94 26H102C108.627 26 114 31.3726 114 38V58H82V38Z" fill="#2A4554"/>
<path d="M138 38C138 31.3726 143.373 26 150 26H158C164.627 26 170 31.3726 170 38V58H138V38Z" fill="#2A4554"/>
<path d="M194 38C194 31.3726 199.373 26 206 26H214C220.627 26 226 31.3726 226 38V58H194V38Z" fill="#2A4554"/>
<path d="M86 8C86 3.58172 89.5817 0 94 0H102C106.418 0 110 3.58172 110 8V16C110 20.4183 106.418 24 102 24H94C89.5817 24 86 20.4183 86 16V8Z" fill="#2A4554"/>
<path d="M142 8C142 3.58172 145.582 0 150 0H158C162.418 0 166 3.58172 166 8V16C166 20.4183 162.418 24 158 24H150C145.582 24 142 20.4183 142 16V8Z" fill="#2A4554"/>
<path d="M198 8C198 3.58172 201.582 0 206 0H214C218.418 0 222 3.58172 222 8V16C222 20.4183 218.418 24 214 24H206C201.582 24 198 20.4183 198 16V8Z" fill="#2A4554"/>
<path d="M85 42L50 49" stroke="#2A4554" stroke-width="5"/>
<path d="M201 42L166 49" stroke="#2A4554" stroke-width="5"/>
<path d="M107.5 41L143 50" stroke="#2A4554" stroke-width="5"/>
</svg>
